<?xml version="1.0" encoding="utf-8"?>
<svg version="1.1" xmlns:xlink="http://www.w3.org/1999/xlink" width="12px" height="12px" viewBox="278 228.5  12 12" xmlns="http://www.w3.org/2000/svg">
  <path d="M 284 228.5  C 287.36 228.5  290 231.14  290 234.5  C 290 237.86  287.36 240.5  284 240.5  C 280.64 240.5  278 237.86  278 234.5  C 278 231.14  280.64 228.5  284 228.5  Z " fill-rule="nonzero" fill="#ffffff" stroke="none" />
  <path d="M 284 229  C 287.08 229  289.5 231.42  289.5 234.5  C 289.5 237.58  287.08 240  284 240  C 280.92 240  278.5 237.58  278.5 234.5  C 278.5 231.42  280.92 229  284 229  Z " stroke-width="1" stroke="#797979" fill="none" />
  <path d="M 284 237.5  C 282.32 237.5  281 236.18  281 234.5  C 281 232.82  282.32 231.5  284 231.5  C 285.68 231.5  287 232.82  287 234.5  C 287 236.18  285.68 237.5  284 237.5  " fill-rule="nonzero" fill="#797979" stroke="none" />
</svg>