<?xml version="1.0" encoding="utf-8"?>
<svg version="1.1" xmlns:xlink="http://www.w3.org/1999/xlink" width="13px" height="21px" xmlns="http://www.w3.org/2000/svg">
  <g transform="matrix(1 0 0 1 -23 -62 )">
    <path d="M 12.7766323024055 1.2625250501002  C 12.9255441008018 1.40280561122244  13 1.56412825651302  13 1.74649298597194  C 13 1.92885771543086  12.9255441008018 2.09018036072144  12.7766323024055 2.23046092184369  L 3.99828178694158 10.5  L 12.7766323024055 18.7695390781563  C 12.9255441008018 18.9098196392786  13 19.0711422845691  13 19.2535070140281  C 13 19.435871743487  12.9255441008018 19.5971943887776  12.7766323024055 19.7374749498998  L 11.659793814433 20.7895791583166  C 11.5108820160367 20.9298597194389  11.3396334478809 21  11.1460481099656 21  C 10.9524627720504 21  10.7812142038946 20.9298597194389  10.6323024054983 20.7895791583166  L 0.223367697594502 10.9839679358717  C 0.0744558991981673 10.8436873747495  0 10.6823647294589  0 10.5  C 0 10.3176352705411  0.0744558991981673 10.1563126252505  0.223367697594502 10.0160320641283  L 10.6323024054983 0.210420841683367  C 10.7812142038946 0.0701402805611215  10.9524627720504 0  11.1460481099656 0  C 11.3396334478809 0  11.5108820160367 0.0701402805611215  11.659793814433 0.210420841683367  L 12.7766323024055 1.2625250501002  Z " fill-rule="nonzero" fill="#000000" stroke="none" transform="matrix(1 0 0 1 23 62 )" />
  </g>
</svg>