<?xml version="1.0" encoding="utf-8"?>
<svg version="1.1" xmlns:xlink="http://www.w3.org/1999/xlink" width="11px" height="20px" xmlns="http://www.w3.org/2000/svg">
  <g transform="matrix(1 0 0 1 -23 -486 )">
    <path d="M 10.6371527777778 0.37109375  C 10.8790509259259 0.61848958333333  11 0.91145833333333  11 1.25  L 11 18.75  C 11 19.0885416666667  10.8790509259259 19.3815104166667  10.6371527777778 19.62890625  C 10.3952546296296 19.8763020833333  10.1087962962963 20  9.77777777777778 20  C 9.44675925925926 20  9.16030092592593 19.8763020833333  8.91840277777778 19.62890625  L 0.362847222222222 10.87890625  C 0.120949074074074 10.6315104166667  0 10.3385416666667  0 10  C 0 9.66145833333333  0.120949074074074 9.36848958333333  0.362847222222222 9.12109375  L 8.91840277777778 0.37109375  C 9.16030092592593 0.123697916666665  9.44675925925926 0  9.77777777777778 0  C 10.1087962962963 0  10.3952546296296 0.123697916666665  10.6371527777778 0.37109375  Z " fill-rule="nonzero" fill="#000000" stroke="none" transform="matrix(1 0 0 1 23 486 )" />
  </g>
</svg>