<?xml version="1.0" encoding="utf-8"?>
<svg version="1.1" xmlns:xlink="http://www.w3.org/1999/xlink" width="65px" height="56px" xmlns="http://www.w3.org/2000/svg">
  <g transform="matrix(1 0 0 1 -47 -487 )">
    <path d="M 17.3333333333333 20  C 17.3333333333333 22.8958333333333  18.2473958333333 25.5625  20.0755208333333 28  C 16.4192708333333 28.1041666666667  13.4288194444444 29.4375  11.1041666666667 32  L 6.56770833333333 32  C 4.71701388888889 32  3.15972222222222 31.578125  1.89583333333333 30.734375  C 0.631944444444444 29.890625  0 28.65625  0 27.03125  C 0 19.6770833333333  1.39930555555556 16  4.19791666666667 16  C 4.33333333333333 16  4.82421875 16.21875  5.67057291666667 16.65625  C 6.51692708333333 17.09375  7.6171875 17.5364583333333  8.97135416666667 17.984375  C 10.3255208333333 18.4322916666667  11.6684027777778 18.65625  13 18.65625  C 14.5121527777778 18.65625  16.0130208333333 18.4166666666667  17.5026041666667 17.9375  C 17.3897569444444 18.7083333333333  17.3333333333333 19.3958333333333  17.3333333333333 20  Z M 56.21484375 44.671875  C 56.2938368055556 45.7239583333333  56.3333333333333 46.8020833333333  56.3333333333333 47.90625  C 56.3333333333333 50.40625  55.5095486111111 52.3802083333333  53.8619791666667 53.828125  C 52.2144097222222 55.2760416666667  50.0251736111111 56  47.2942708333333 56  L 17.7057291666667 56  C 14.9748263888889 56  12.7855902777778 55.2760416666667  11.1380208333333 53.828125  C 9.49045138888889 52.3802083333333  8.66666666666667 50.40625  8.66666666666667 47.90625  C 8.66666666666667 46.8020833333333  8.70616319444444 45.7239583333333  8.78515625 44.671875  C 8.86414930555556 43.6197916666667  9.02213541666667 42.484375  9.25911458333333 41.265625  C 9.49609375 40.046875  9.79513888888889 38.9166666666667  10.15625 37.875  C 10.5173611111111 36.8333333333333  11.0026041666667 35.8177083333333  11.6119791666667 34.828125  C 12.2213541666667 33.8385416666667  12.9210069444444 32.9947916666667  13.7109375 32.296875  C 14.5008680555556 31.5989583333333  15.4657118055556 31.0416666666667  16.60546875 30.625  C 17.7452256944444 30.2083333333333  19.0034722222222 30  20.3802083333333 30  C 20.6059027777778 30  21.0911458333333 30.2239583333333  21.8359375 30.671875  C 22.5807291666667 31.1197916666667  23.4045138888889 31.6197916666667  24.3072916666667 32.171875  C 25.2100694444445 32.7239583333333  26.4175347222222 33.2239583333333  27.9296875 33.671875  C 29.4418402777778 34.1197916666667  30.9652777777778 34.34375  32.5 34.34375  C 34.0347222222222 34.34375  35.5581597222222 34.1197916666667  37.0703125 33.671875  C 38.5824652777778 33.2239583333333  39.7899305555556 32.7239583333333  40.6927083333333 32.171875  C 41.5954861111111 31.6197916666667  42.4192708333333 31.1197916666667  43.1640625 30.671875  C 43.9088541666667 30.2239583333333  44.3940972222222 30  44.6197916666667 30  C 45.9965277777778 30  47.2547743055556 30.2083333333333  48.39453125 30.625  C 49.5342881944445 31.0416666666667  50.4991319444444 31.5989583333333  51.2890625 32.296875  C 52.0789930555556 32.9947916666667  52.7786458333333 33.8385416666667  53.3880208333333 34.828125  C 53.9973958333333 35.8177083333333  54.4826388888889 36.8333333333333  54.84375 37.875  C 55.2048611111111 38.9166666666667  55.50390625 40.046875  55.7408854166667 41.265625  C 55.9778645833333 42.484375  56.1358506944445 43.6197916666667  56.21484375 44.671875  Z M 19.1276041666667 2.34375  C 20.8203125 3.90625  21.6666666666667 5.79166666666666  21.6666666666667 8  C 21.6666666666667 10.2083333333333  20.8203125 12.09375  19.1276041666667 13.65625  C 17.4348958333333 15.21875  15.3923611111111 16  13 16  C 10.6076388888889 16  8.56510416666667 15.21875  6.87239583333333 13.65625  C 5.1796875 12.09375  4.33333333333333 10.2083333333333  4.33333333333333 8  C 4.33333333333333 5.79166666666666  5.1796875 3.90625  6.87239583333333 2.34375  C 8.56510416666667 0.781250000000003  10.6076388888889 0  13 0  C 15.3923611111111 0  17.4348958333333 0.781250000000003  19.1276041666667 2.34375  Z M 41.69140625 11.515625  C 44.23046875 13.859375  45.5 16.6875  45.5 20  C 45.5 23.3125  44.23046875 26.140625  41.69140625 28.484375  C 39.15234375 30.828125  36.0885416666667 32  32.5 32  C 28.9114583333333 32  25.84765625 30.828125  23.30859375 28.484375  C 20.76953125 26.140625  19.5 23.3125  19.5 20  C 19.5 16.6875  20.76953125 13.859375  23.30859375 11.515625  C 25.84765625 9.171875  28.9114583333333 8  32.5 8  C 36.0885416666667 8  39.15234375 9.171875  41.69140625 11.515625  Z M 60.8020833333333 16  C 63.6006944444445 16  65 19.6770833333333  65 27.03125  C 65 28.65625  64.3680555555556 29.890625  63.1041666666667 30.734375  C 61.8402777777778 31.578125  60.2829861111111 32  58.4322916666667 32  L 53.8958333333333 32  C 51.5711805555556 29.4375  48.5807291666667 28.1041666666667  44.9244791666667 28  C 46.7526041666667 25.5625  47.6666666666667 22.8958333333333  47.6666666666667 20  C 47.6666666666667 19.3958333333333  47.6102430555556 18.7083333333333  47.4973958333333 17.9375  C 48.9869791666667 18.4166666666667  50.4878472222222 18.65625  52 18.65625  C 53.3315972222222 18.65625  54.6744791666667 18.4322916666667  56.0286458333333 17.984375  C 57.3828125 17.5364583333333  58.4830729166667 17.09375  59.3294270833333 16.65625  C 60.17578125 16.21875  60.6666666666667 16  60.8020833333333 16  Z M 58.1276041666667 2.34375  C 59.8203125 3.90625  60.6666666666667 5.79166666666666  60.6666666666667 8  C 60.6666666666667 10.2083333333333  59.8203125 12.09375  58.1276041666667 13.65625  C 56.4348958333333 15.21875  54.3923611111111 16  52 16  C 49.6076388888889 16  47.5651041666667 15.21875  45.8723958333333 13.65625  C 44.1796875 12.09375  43.3333333333333 10.2083333333333  43.3333333333333 8  C 43.3333333333333 5.79166666666666  44.1796875 3.90625  45.8723958333333 2.34375  C 47.5651041666667 0.781250000000003  49.6076388888889 0  52 0  C 54.3923611111111 0  56.4348958333333 0.781250000000003  58.1276041666667 2.34375  Z " fill-rule="nonzero" fill="#000000" stroke="none" transform="matrix(1 0 0 1 47 487 )" />
  </g>
</svg>