<?xml version="1.0" encoding="utf-8"?>
<svg version="1.1" xmlns:xlink="http://www.w3.org/1999/xlink" width="32px" height="32px" xmlns="http://www.w3.org/2000/svg">
  <g transform="matrix(1 0 0 1 -27 -184 )">
    <path d="M 30.2395833333333 1.76041666666667  C 31.4131944444444 2.93402777777778  32 4.34722222222222  32 6  L 32 26  C 32 27.6527777777778  31.4131944444444 29.0659722222222  30.2395833333333 30.2395833333333  C 29.0659722222222 31.4131944444444  27.6527777777778 32  26 32  L 6 32  C 4.34722222222222 32  2.93402777777778 31.4131944444444  1.76041666666667 30.2395833333333  C 0.586805555555555 29.0659722222222  0 27.6527777777778  0 26  L 0 6  C 0 4.34722222222222  0.586805555555555 2.93402777777778  1.76041666666667 1.76041666666667  C 2.93402777777778 0.586805555555554  4.34722222222222 0  6 0  L 26 0  C 27.6527777777778 0  29.0659722222222 0.586805555555554  30.2395833333333 1.76041666666667  Z " fill-rule="nonzero" fill="#02a7f0" stroke="none" fill-opacity="0.184313725490196" transform="matrix(1 0 0 1 27 184 )" />
  </g>
</svg>