<?xml version="1.0" encoding="utf-8"?>
<svg version="1.1" xmlns:xlink="http://www.w3.org/1999/xlink" width="10px" height="11px" xmlns="http://www.w3.org/2000/svg">
  <g transform="matrix(1 0 0 1 -6 -12 )">
    <path d="M 9.67013888888889 0.2041015625  C 9.8900462962963 0.340169270833332  10 0.501302083333332  10 0.6875  L 10 10.3125  C 10 10.4986979166667  9.8900462962963 10.6598307291667  9.67013888888889 10.7958984375  C 9.45023148148148 10.9319661458333  9.18981481481481 11  8.88888888888889 11  C 8.58796296296296 11  8.3275462962963 10.9319661458333  8.10763888888889 10.7958984375  L 0.329861111111111 5.9833984375  C 0.109953703703704 5.84733072916667  0 5.68619791666667  0 5.5  C 0 5.31380208333333  0.109953703703704 5.15266927083333  0.329861111111111 5.0166015625  L 8.10763888888889 0.2041015625  C 8.3275462962963 0.0680338541666659  8.58796296296296 0  8.88888888888889 0  C 9.18981481481481 0  9.45023148148148 0.0680338541666659  9.67013888888889 0.2041015625  Z " fill-rule="nonzero" fill="#000000" stroke="none" transform="matrix(1 0 0 1 6 12 )" />
  </g>
</svg>