<?xml version="1.0" encoding="utf-8"?>
<svg version="1.1" xmlns:xlink="http://www.w3.org/1999/xlink" width="52px" height="52px" xmlns="http://www.w3.org/2000/svg">
  <g transform="matrix(1 0 0 1 -180 -260 )">
    <path d="M 49.1393229166667 2.86067708333334  C 51.0464409722222 4.76779513888888  52 7.0642361111111  52 9.75  L 52 42.25  C 52 44.9357638888889  51.0464409722222 47.2322048611111  49.1393229166667 49.1393229166667  C 47.2322048611111 51.0464409722222  44.9357638888889 52  42.25 52  L 9.75 52  C 7.06423611111111 52  4.76779513888889 51.0464409722222  2.86067708333333 49.1393229166667  C 0.953559027777778 47.2322048611111  0 44.9357638888889  0 42.25  L 0 9.75  C 0 7.0642361111111  0.953559027777778 4.76779513888888  2.86067708333333 2.86067708333334  C 4.76779513888889 0.953559027777775  7.06423611111111 0  9.75 0  L 42.25 0  C 44.9357638888889 0  47.2322048611111 0.953559027777775  49.1393229166667 2.86067708333334  Z " fill-rule="nonzero" fill="#aaaaaa" stroke="none" fill-opacity="0.117647058823529" transform="matrix(1 0 0 1 180 260 )" />
  </g>
</svg>