<?xml version="1.0" encoding="utf-8"?>
<svg version="1.1" xmlns:xlink="http://www.w3.org/1999/xlink" width="19px" height="16px" xmlns="http://www.w3.org/2000/svg">
  <g transform="matrix(1 0 0 1 -273 -12 )">
    <path d="M 18.9797728885735 0.607954545454545  C 19.0112372841259 0.763257575757574  18.9820203453986 0.912878787878787  18.8921220723918 1.05681818181818  L 10.2618878637331 15.6022727272727  C 10.1090607996215 15.8674242424242  9.85285072155193 16  9.49325762952449 16  C 9.44830849302106 16  9.38088478826591 15.9924242424242  9.29098651525905 15.9772727272727  C 9.09321031464396 15.9393939393939  8.93364088005678 15.8541666666667  8.81227821149752 15.7215909090909  C 8.69091554293825 15.5890151515152  8.63023420865862 15.4393939393939  8.63023420865862 15.2727272727273  L 8.63023420865862 8.72727272727273  L 0.863023420865862 8.72727272727273  C 0.665247220250769 8.72727272727273  0.487698131062219 8.67613636363636  0.330376153300213 8.57386363636364  C 0.173054175538207 8.47159090909091  0.0719186184054885 8.33712121212121  0.0269694819020582 8.17045454545455  C -0.0179796546013721 8.00378787878788  0 7.84469696969697  0.0809084457061746 7.69318181818182  C 0.161816891412349 7.54166666666667  0.292169387272297 7.4280303030303  0.471965933286018 7.35227272727273  L 17.7324343506033 0.079545454545455  C 17.8493021055122 0.0265151515151505  17.9796546013721 0  18.1234918381831 0  C 18.3662171753016 0  18.5684882895671 0.0719696969696955  18.7303051809794 0.215909090909092  C 18.8651525904897 0.321969696969695  18.9483084930211 0.452651515151514  18.9797728885735 0.607954545454545  Z " fill-rule="nonzero" fill="#000000" stroke="none" transform="matrix(1 0 0 1 273 12 )" />
  </g>
</svg>