<?xml version="1.0" encoding="utf-8"?>
<svg version="1.1" xmlns:xlink="http://www.w3.org/1999/xlink" width="4px" height="4px" xmlns="http://www.w3.org/2000/svg">
  <g transform="matrix(1 0 0 1 -193 -747 )">
    <path d="M 3.73177083333333 0.99609375  C 3.91059027777778 1.30251736111111  4 1.63715277777778  4 2  C 4 2.36284722222222  3.91059027777778 2.69748263888889  3.73177083333333 3.00390625  C 3.55295138888889 3.31032986111111  3.31032986111111 3.55295138888889  3.00390625 3.73177083333333  C 2.69748263888889 3.91059027777778  2.36284722222222 4  2 4  C 1.63715277777778 4  1.30251736111111 3.91059027777778  0.99609375 3.73177083333333  C 0.689670138888889 3.55295138888889  0.447048611111111 3.31032986111111  0.268229166666667 3.00390625  C 0.0894097222222222 2.69748263888889  0 2.36284722222222  0 2  C 0 1.63715277777778  0.0894097222222222 1.30251736111111  0.268229166666667 0.99609375  C 0.447048611111111 0.689670138888889  0.689670138888889 0.447048611111111  0.99609375 0.268229166666667  C 1.30251736111111 0.0894097222222219  1.63715277777778 0  2 0  C 2.36284722222222 0  2.69748263888889 0.0894097222222219  3.00390625 0.268229166666667  C 3.31032986111111 0.447048611111111  3.55295138888889 0.689670138888889  3.73177083333333 0.99609375  Z " fill-rule="nonzero" fill="#000000" stroke="none" fill-opacity="0.996078431372549" transform="matrix(1 0 0 1 193 747 )" />
  </g>
</svg>