<?xml version="1.0" encoding="utf-8"?>
<svg version="1.1" xmlns:xlink="http://www.w3.org/1999/xlink" width="49px" height="28px" xmlns="http://www.w3.org/2000/svg">
  <g transform="matrix(1 0 0 1 -306 -178 )">
    <path d="M 1.22021484375 19.4359375  C 0.40673828125 17.7078125  0 15.8958333333333  0 14  C 0 12.1041666666667  0.40673828125 10.2921875  1.22021484375 8.5640625  C 2.03369140625 6.8359375  3.122314453125 5.3484375  4.486083984375 4.1015625  C 5.849853515625 2.8546875  7.476806640625 1.859375  9.366943359375 1.115625  C 11.257080078125 0.371875000000001  13.2389322916667 0  15.3125 0  L 33.6875 0  C 35.7610677083333 0  37.742919921875 0.371875000000001  39.633056640625 1.115625  C 41.523193359375 1.859375  43.150146484375 2.8546875  44.513916015625 4.1015625  C 45.877685546875 5.3484375  46.96630859375 6.8359375  47.77978515625 8.5640625  C 48.59326171875 10.2921875  49 12.1041666666667  49 14  C 49 15.8958333333333  48.59326171875 17.7078125  47.77978515625 19.4359375  C 46.96630859375 21.1640625  45.877685546875 22.6515625  44.513916015625 23.8984375  C 43.150146484375 25.1453125  41.523193359375 26.140625  39.633056640625 26.884375  C 37.742919921875 27.628125  35.7610677083333 28  33.6875 28  L 15.3125 28  C 13.2389322916667 28  11.257080078125 27.628125  9.366943359375 26.884375  C 7.476806640625 26.140625  5.849853515625 25.1453125  4.486083984375 23.8984375  C 3.122314453125 22.6515625  2.03369140625 21.1640625  1.22021484375 19.4359375  Z M 28.938232421875 24.3140625  C 30.445556640625 24.9046875  32.0286458333333 25.2  33.6875 25.2  C 35.3463541666667 25.2  36.929443359375 24.9046875  38.436767578125 24.3140625  C 39.944091796875 23.7234375  41.248046875 22.925  42.3486328125 21.91875  C 43.44921875 20.9125  44.322509765625 19.7203125  44.968505859375 18.3421875  C 45.614501953125 16.9640625  45.9375 15.5166666666667  45.9375 14  C 45.9375 12.4833333333333  45.614501953125 11.0359375  44.968505859375 9.6578125  C 44.322509765625 8.2796875  43.44921875 7.0875  42.3486328125 6.08125  C 41.248046875 5.075  39.944091796875 4.2765625  38.436767578125 3.6859375  C 36.929443359375 3.0953125  35.3463541666667 2.8  33.6875 2.8  C 32.0286458333333 2.8  30.445556640625 3.0953125  28.938232421875 3.6859375  C 27.430908203125 4.2765625  26.126953125 5.075  25.0263671875 6.08125  C 23.92578125 7.0875  23.052490234375 8.2796875  22.406494140625 9.6578125  C 21.760498046875 11.0359375  21.4375 12.4833333333333  21.4375 14  C 21.4375 15.5166666666667  21.760498046875 16.9640625  22.406494140625 18.3421875  C 23.052490234375 19.7203125  23.92578125 20.9125  25.0263671875 21.91875  C 26.126953125 22.925  27.430908203125 23.7234375  28.938232421875 24.3140625  Z " fill-rule="nonzero" fill="#95f204" stroke="none" transform="matrix(1 0 0 1 306 178 )" />
  </g>
</svg>