<?xml version="1.0" encoding="utf-8"?>
<svg version="1.1" xmlns:xlink="http://www.w3.org/1999/xlink" width="13px" height="17px" xmlns="http://www.w3.org/2000/svg">
  <g transform="matrix(1 0 0 1 -327 -368 )">
    <path d="M 12.7766323024055 8.10821643286573  C 12.9255441008018 8.22177688710755  13 8.35237140948564  13 8.5  C 13 8.64762859051436  12.9255441008018 8.77822311289245  12.7766323024055 8.89178356713427  L 2.36769759450172 16.8296593186373  C 2.21878579610538 16.9432197728791  2.0475372279496 17  1.85395189003436 17  C 1.66036655211913 17  1.48911798396334 16.9432197728791  1.34020618556701 16.8296593186373  L 0.223367697594502 15.9779559118236  C 0.0744558991981673 15.8643954575818  0 15.7338009352037  0 15.5861723446894  C 0 15.438543754175  0.0744558991981673 15.3079492317969  0.223367697594502 15.1943887775551  L 9.00171821305842 8.5  L 0.223367697594502 1.80561122244489  C 0.0744558991981673 1.69205076820307  0 1.56145624582498  0 1.41382765531062  C 0 1.26619906479626  0.0744558991981673 1.13560454241817  0.223367697594502 1.02204408817635  L 1.34020618556701 0.170340681362726  C 1.48911798396334 0.0567802271209079  1.66036655211913 0  1.85395189003436 0  C 2.0475372279496 0  2.21878579610538 0.0567802271209079  2.36769759450172 0.170340681362726  L 12.7766323024055 8.10821643286573  Z " fill-rule="nonzero" fill="#555555" stroke="none" transform="matrix(1 0 0 1 327 368 )" />
  </g>
</svg>