<?xml version="1.0" encoding="utf-8"?>
<svg version="1.1" xmlns:xlink="http://www.w3.org/1999/xlink" width="18px" height="28px" xmlns="http://www.w3.org/2000/svg">
  <g transform="matrix(1 0 0 1 -23 -486 )">
    <path d="M 17.40625 0.51953125  C 17.8020833333333 0.865885416666663  18 1.27604166666666  18 1.75  L 18 26.25  C 18 26.7239583333333  17.8020833333333 27.1341145833333  17.40625 27.48046875  C 17.0104166666667 27.8268229166667  16.5416666666667 28  16 28  C 15.4583333333333 28  14.9895833333333 27.8268229166667  14.59375 27.48046875  L 0.59375 15.23046875  C 0.197916666666667 14.8841145833333  0 14.4739583333333  0 14  C 0 13.5260416666667  0.197916666666667 13.1158854166667  0.59375 12.76953125  L 14.59375 0.51953125  C 14.9895833333333 0.173177083333331  15.4583333333333 0  16 0  C 16.5416666666667 0  17.0104166666667 0.173177083333331  17.40625 0.51953125  Z " fill-rule="nonzero" fill="#000000" stroke="none" transform="matrix(1 0 0 1 23 486 )" />
  </g>
</svg>