<?xml version="1.0" encoding="utf-8"?>
<svg version="1.1" xmlns:xlink="http://www.w3.org/1999/xlink" width="18px" height="28px" xmlns="http://www.w3.org/2000/svg">
  <g transform="matrix(1 0 0 1 -336 -486 )">
    <path d="M 17.40625 12.76953125  C 17.8020833333333 13.1158854166667  18 13.5260416666667  18 14  C 18 14.4739583333333  17.8020833333333 14.8841145833333  17.40625 15.23046875  L 3.40625 27.48046875  C 3.01041666666667 27.8268229166667  2.54166666666667 28  2 28  C 1.45833333333333 28  0.989583333333333 27.8268229166667  0.59375 27.48046875  C 0.197916666666667 27.1341145833333  0 26.7239583333333  0 26.25  L 0 1.75  C 0 1.27604166666666  0.197916666666667 0.865885416666663  0.59375 0.51953125  C 0.989583333333333 0.173177083333331  1.45833333333333 0  2 0  C 2.54166666666667 0  3.01041666666667 0.173177083333331  3.40625 0.51953125  L 17.40625 12.76953125  Z " fill-rule="nonzero" fill="#000000" stroke="none" transform="matrix(1 0 0 1 336 486 )" />
  </g>
</svg>