<?xml version="1.0" encoding="utf-8"?>
<svg version="1.1" xmlns:xlink="http://www.w3.org/1999/xlink" width="37px" height="35px" xmlns="http://www.w3.org/2000/svg">
  <g transform="matrix(1 0 0 1 -180 -638 )">
    <path d="M 30.5201822916667 18.525390625  C 30.8092447916667 18.251953125  30.9537760416667 17.91015625  30.9537760416667 17.5  C 30.9537760416667 17.08984375  30.8092447916667 16.748046875  30.5201822916667 16.474609375  L 28.328125 14.4010416666667  L 19.6080729166667 6.15234375  C 19.3190104166667 5.87890625  18.9576822916667 5.7421875  18.5240885416667 5.7421875  C 18.0904947916667 5.7421875  17.7291666666667 5.87890625  17.4401041666667 6.15234375  L 15.248046875 8.22591145833333  C 14.958984375 8.49934895833333  14.814453125 8.84114583333333  14.814453125 9.25130208333333  C 14.814453125 9.66145833333333  14.958984375 10.0032552083333  15.248046875 10.2766927083333  L 19.80078125 15  L 7.70833333333333 15  C 7.29079861111111 14.5833333333333  6.92947048611111 14.7276475694444  6.62434895833333 15.0162760416667  C 6.31922743055556 15.3049045138889  6.16666666666667 15.6467013888889  6.16666666666667 16.0416666666667  L 6.16666666666667 18.9583333333333  C 6.16666666666667 19.3532986111111  6.31922743055556 19.6950954861111  6.62434895833333 19.9837239583333  C 6.92947048611111 20.2723524305556  7.29079861111111 20.4166666666667  7.70833333333333 20  L 19.80078125 20  L 15.248046875 24.7233072916667  C 14.9429253472222 25.0119357638889  14.7903645833333 25.3537326388889  14.7903645833333 25.7486979166667  C 14.7903645833333 26.1436631944444  14.9429253472222 26.4854600694444  15.248046875 26.7740885416667  L 17.4401041666667 28.84765625  C 17.7291666666667 29.12109375  18.0904947916667 29.2578125  18.5240885416667 29.2578125  C 18.9576822916667 29.2578125  19.3190104166667 29.12109375  19.6080729166667 28.84765625  L 28.328125 20.5989583333333  L 30.5201822916667 18.525390625  Z M 34.5188802083333 8.7158203125  C 36.1729600694444 11.3970269097222  37 14.3250868055556  37 17.5  C 37 20.6749131944444  36.1729600694444 23.6029730902778  34.5188802083333 26.2841796875  C 32.8648003472222 28.9653862847222  30.6205512152778 31.0883246527778  27.7861328125 32.6529947916667  C 24.9517144097222 34.2176649305556  21.8563368055556 35  18.5 35  C 15.1436631944444 35  12.0482855902778 34.2176649305556  9.2138671875 32.6529947916667  C 6.37944878472222 31.0883246527778  4.13519965277778 28.9653862847222  2.48111979166667 26.2841796875  C 0.827039930555555 23.6029730902778  0 20.6749131944444  0 17.5  C 0 14.3250868055556  0.827039930555555 11.3970269097222  2.48111979166667 8.7158203125  C 4.13519965277778 6.03461371527778  6.37944878472222 3.91167534722222  9.2138671875 2.34700520833333  C 12.0482855902778 0.782335069444441  15.1436631944444 0  18.5 0  C 21.8563368055556 0  24.9517144097222 0.782335069444441  27.7861328125 2.34700520833333  C 30.6205512152778 3.91167534722222  32.8648003472222 6.03461371527778  34.5188802083333 8.7158203125  Z " fill-rule="nonzero" fill="#000000" stroke="none" transform="matrix(1 0 0 1 180 638 )" />
  </g>
</svg>