<?xml version="1.0" encoding="utf-8"?>
<svg version="1.1" xmlns:xlink="http://www.w3.org/1999/xlink" width="37px" height="35px" xmlns="http://www.w3.org/2000/svg">
  <g transform="matrix(1 0 0 1 -48 -645 )">
    <path d="M 30.3756510416667 19.9837239583333  C 30.6807725694444 19.6950954861111  30.8333333333333 19.3532986111111  30.8333333333333 18.9583333333333  L 30.8333333333333 16.0416666666667  C 30.8333333333333 15.6467013888889  30.6807725694444 15.3049045138889  30.3756510416667 15.0162760416667  C 30.0705295138889 14.7276475694444  29.7092013888889 14.5833333333333  29.2916666666667 15  L 17.19921875 15  L 21.751953125 10.2766927083333  C 22.0570746527778 9.98806423611111  22.2096354166667 9.64626736111111  22.2096354166667 9.25130208333333  C 22.2096354166667 8.85633680555555  22.0570746527778 8.51453993055555  21.751953125 8.22591145833333  L 19.5598958333333 6.15234375  C 19.2708333333333 5.87890625  18.9095052083333 5.7421875  18.4759114583333 5.7421875  C 18.0423177083333 5.7421875  17.6809895833333 5.87890625  17.3919270833333 6.15234375  L 8.671875 14.4010416666667  L 6.47981770833333 16.474609375  C 6.19075520833333 16.748046875  6.04622395833333 17.08984375  6.04622395833333 17.5  C 6.04622395833333 17.91015625  6.19075520833333 18.251953125  6.47981770833333 18.525390625  L 8.671875 20.5989583333333  L 17.3919270833333 28.84765625  C 17.6809895833333 29.12109375  18.0423177083333 29.2578125  18.4759114583333 29.2578125  C 18.9095052083333 29.2578125  19.2708333333333 29.12109375  19.5598958333333 28.84765625  L 21.751953125 26.7740885416667  C 22.041015625 26.5006510416667  22.185546875 26.1588541666667  22.185546875 25.7486979166667  C 22.185546875 25.3385416666667  22.041015625 24.9967447916667  21.751953125 24.7233072916667  L 17.19921875 20  L 29.2916666666667 20  C 29.7092013888889 20.4166666666667  30.0705295138889 20.2723524305556  30.3756510416667 19.9837239583333  Z M 34.5188802083333 8.7158203125  C 36.1729600694444 11.3970269097222  37 14.3250868055556  37 17.5  C 37 20.6749131944444  36.1729600694444 23.6029730902778  34.5188802083333 26.2841796875  C 32.8648003472222 28.9653862847222  30.6205512152778 31.0883246527778  27.7861328125 32.6529947916667  C 24.9517144097222 34.2176649305556  21.8563368055556 35  18.5 35  C 15.1436631944444 35  12.0482855902778 34.2176649305556  9.2138671875 32.6529947916667  C 6.37944878472222 31.0883246527778  4.13519965277778 28.9653862847222  2.48111979166667 26.2841796875  C 0.827039930555555 23.6029730902778  0 20.6749131944444  0 17.5  C 0 14.3250868055556  0.827039930555555 11.3970269097222  2.48111979166667 8.7158203125  C 4.13519965277778 6.03461371527778  6.37944878472222 3.91167534722222  9.2138671875 2.34700520833333  C 12.0482855902778 0.782335069444441  15.1436631944444 0  18.5 0  C 21.8563368055556 0  24.9517144097222 0.782335069444441  27.7861328125 2.34700520833333  C 30.6205512152778 3.91167534722222  32.8648003472222 6.03461371527778  34.5188802083333 8.7158203125  Z " fill-rule="nonzero" fill="#000000" stroke="none" transform="matrix(1 0 0 1 48 645 )" />
  </g>
</svg>