<?xml version="1.0" encoding="utf-8"?>
<svg version="1.1" xmlns:xlink="http://www.w3.org/1999/xlink" width="39px" height="41px" xmlns="http://www.w3.org/2000/svg">
  <g transform="matrix(1 0 0 1 -68 -366 )">
    <path d="M 12.4090909090909 22.0769230769231  L 15.9545454545455 37.8461538461538  L 18.6136363636364 26.8076923076923  L 15.9545454545455 23.6538461538462  L 12.4090909090909 22.0769230769231  Z M 20.3863636363636 26.8076923076923  L 23.0454545454545 37.8461538461538  L 26.5909090909091 22.0769230769231  L 23.0454545454545 23.6538461538462  L 20.3863636363636 26.8076923076923  Z M 27.3664772727273 13.6256009615385  C 27.4034090909091 13.4777644230769  27.4403409090909 13.2560096153846  27.4772727272727 12.9603365384615  C 27.4403409090909 12.8946314102564  27.4034090909091 12.8453525641026  27.3664772727273 12.8125  C 27.1818181818182 12.6810897435897  26.2954545454545 12.6153846153846  24.7073863636364 12.6153846153846  C 23.4147727272727 12.6153846153846  21.8728693181818 12.7714342948718  20.0816761363636 13.0835336538462  C 19.9524147727273 13.1163862179487  19.7585227272727 13.1328125  19.5 13.1328125  C 19.2414772727273 13.1328125  19.0475852272727 13.1163862179487  18.9183238636364 13.0835336538462  C 17.1271306818182 12.7714342948718  15.5852272727273 12.6153846153846  14.2926136363636 12.6153846153846  C 12.7045454545455 12.6153846153846  11.8181818181818 12.6810897435897  11.6335227272727 12.8125  C 11.5965909090909 12.8453525641026  11.5596590909091 12.8946314102564  11.5227272727273 12.9603365384615  C 11.5596590909091 13.2560096153846  11.5965909090909 13.4777644230769  11.6335227272727 13.6256009615385  C 11.6704545454545 13.6748798076923  11.7397017045455 13.728265224359  11.8412642045455 13.7857572115385  C 11.9428267045455 13.8432491987179  12.0120738636364 13.9294871794872  12.0490056818182 14.0444711538462  C 12.0859375 14.1101762820513  12.1551846590909 14.2785456730769  12.2567471590909 14.5495793269231  C 12.3583096590909 14.8206129807692  12.4229403409091 14.9889823717949  12.4506392045455 15.0546875  C 12.4783380681818 15.1203926282051  12.5475852272727 15.260016025641  12.6583806818182 15.4735576923077  C 12.7691761363636 15.6870993589744  12.84765625 15.8267227564103  12.8938210227273 15.8924278846154  C 12.9399857954545 15.9581330128205  13.0230823863636 16.0731169871795  13.1431107954545 16.2373798076923  C 13.2631392045455 16.4016426282051  13.3739346590909 16.5125200320513  13.4754971590909 16.5700120192308  C 13.5770596590909 16.6275040064103  13.7063210227273 16.7055288461538  13.86328125 16.8040865384615  C 14.0202414772727 16.9026442307692  14.1818181818182 16.9683493589744  14.3480113636364 17.0012019230769  C 14.5142045454545 17.0340544871795  14.7034801136364 17.0669070512821  14.9158380681818 17.0997596153846  C 15.1281960227273 17.1326121794872  15.3544034090909 17.1490384615385  15.5944602272727 17.1490384615385  C 16.2592329545455 17.1490384615385  16.8039772727273 17.0463741987179  17.2286931818182 16.8410456730769  C 17.6534090909091 16.6357171474359  17.9534801136364 16.3893229166667  18.12890625 16.1018629807692  C 18.3043323863636 15.8144030448718  18.4382102272727 15.5310496794872  18.5305397727273 15.2518028846154  C 18.6228693181818 14.9725560897436  18.7290482954545 14.7302684294872  18.8490767045455 14.5249399038462  C 18.9691051136364 14.3196113782051  19.1306818181818 14.2169471153846  19.3338068181818 14.2169471153846  L 19.6661931818182 14.2169471153846  C 19.8693181818182 14.2169471153846  20.0308948863636 14.3196113782051  20.1509232954545 14.5249399038462  C 20.2709517045455 14.7302684294872  20.3771306818182 14.9725560897436  20.4694602272727 15.2518028846154  C 20.5617897727273 15.5310496794872  20.6956676136364 15.8144030448718  20.87109375 16.1018629807692  C 21.0465198863636 16.3893229166667  21.3465909090909 16.6357171474359  21.7713068181818 16.8410456730769  C 22.1960227272727 17.0463741987179  22.7407670454545 17.1490384615385  23.4055397727273 17.1490384615385  C 23.6455965909091 17.1490384615385  23.8718039772727 17.1326121794872  24.0841619318182 17.0997596153846  C 24.2965198863636 17.0669070512821  24.4857954545455 17.0340544871795  24.6519886363636 17.0012019230769  C 24.8181818181818 16.9683493589744  24.9797585227273 16.9026442307692  25.13671875 16.8040865384615  C 25.2936789772727 16.7055288461538  25.4229403409091 16.6275040064103  25.5245028409091 16.5700120192308  C 25.6260653409091 16.5125200320513  25.7368607954546 16.4016426282051  25.8568892045455 16.2373798076923  C 25.9769176136364 16.0731169871795  26.0600142045455 15.9581330128205  26.1061789772727 15.8924278846154  C 26.15234375 15.8267227564103  26.2308238636364 15.6870993589744  26.3416193181818 15.4735576923077  C 26.4524147727273 15.260016025641  26.5216619318182 15.1203926282051  26.5493607954545 15.0546875  C 26.5770596590909 14.9889823717949  26.6416903409091 14.8206129807692  26.7432528409091 14.5495793269231  C 26.8448153409091 14.2785456730769  26.9140625 14.1101762820513  26.9509943181818 14.0444711538462  C 26.9879261363636 13.9294871794872  27.0571732954545 13.8432491987179  27.1587357954545 13.7857572115385  C 27.2602982954546 13.728265224359  27.3295454545455 13.6748798076923  27.3664772727273 13.6256009615385  Z M 38.7784090909091 30.9594350961538  C 38.9261363636364 32.1339142628205  39 33.3535657051282  39 34.6183894230769  C 39 36.6059695512821  38.3259943181818 38.1664663461538  36.9779829545455 39.2998798076923  C 35.6299715909091 40.4332932692308  33.8387784090909 41  31.6044034090909 41  L 7.39559659090909 41  C 5.16122159090909 41  3.37002840909091 40.4332932692308  2.02201704545455 39.2998798076923  C 0.674005681818182 38.1664663461538  0 36.6059695512821  0 34.6183894230769  C 0 33.6163862179487  0.0415482954545454 32.6472355769231  0.124644886363636 31.7109375  C 0.207741477272727 30.7746394230769  0.383167613636364 29.743890224359  0.650923295454545 28.6186899038462  C 0.918678977272727 27.4934895833333  1.26491477272727 26.4791666666667  1.68963068181818 25.5757211538462  C 2.11434659090909 24.6722756410256  2.70063920454545 23.8222155448718  3.44850852272727 23.0255408653846  C 4.19637784090909 22.2288661858974  5.05965909090909 21.6169871794872  6.03835227272727 21.1899038461538  L 3.54545454545455 15.7692307692308  L 9.47301136363636 15.7692307692308  C 9.06676136363637 14.7179487179487  8.86363636363636 13.6666666666667  8.86363636363636 12.6153846153846  C 8.86363636363636 12.4182692307692  8.88210227272727 12.1554487179487  8.91903409090909 11.8269230769231  C 5.33664772727273 11.1698717948718  3.54545454545455 10.3814102564103  3.54545454545455 9.46153846153846  C 3.54545454545455 8.52524038461538  5.484375 7.71213942307692  9.36221590909091 7.02223557692308  C 9.67613636363637 6.00380608974359  10.1516335227273 4.90324519230769  10.7887073863636 3.72055288461538  C 11.42578125 2.53786057692308  12.0767045454545 1.6015625  12.7414772727273 0.911658653846152  C 13.3323863636364 0.30388621794872  14.0340909090909 0  14.8465909090909 0  C 15.4005681818182 0  16.1761363636364 0.254607371794877  17.1732954545455 0.763822115384616  C 18.1704545454545 1.27303685897436  18.9460227272727 1.52764423076923  19.5 1.52764423076923  C 20.0539772727273 1.52764423076923  20.8295454545455 1.27303685897436  21.8267045454545 0.763822115384616  C 22.8238636363636 0.254607371794877  23.5994318181818 0  24.1534090909091 0  C 24.9659090909091 0  25.6676136363636 0.30388621794872  26.2585227272727 0.911658653846152  C 26.9232954545455 1.6015625  27.57421875 2.53786057692308  28.2112926136364 3.72055288461538  C 28.8483664772727 4.90324519230769  29.3238636363636 6.00380608974359  29.6377840909091 7.02223557692308  C 33.515625 7.71213942307692  35.4545454545455 8.52524038461538  35.4545454545455 9.46153846153846  C 35.4545454545455 10.3814102564103  33.6633522727273 11.1698717948718  30.0809659090909 11.8269230769231  C 30.2102272727273 13.1574519230769  30.0255681818182 14.4715544871795  29.5269886363636 15.7692307692308  L 35.4545454545455 15.7692307692308  L 33.1832386363636 21.3131009615385  C 34.3465909090909 21.8551682692308  35.3391335227273 22.6477363782051  36.1608664772727 23.6908052884615  C 36.9825994318182 24.7338741987179  37.5873579545455 25.9124599358974  37.9751420454545 27.2265625  C 38.3629261363636 28.5406650641026  38.6306818181818 29.7849559294872  38.7784090909091 30.9594350961538  Z " fill-rule="nonzero" fill="#000000" stroke="none" transform="matrix(1 0 0 1 68 366 )" />
  </g>
</svg>