<?xml version="1.0" encoding="utf-8"?>
<svg version="1.1" xmlns:xlink="http://www.w3.org/1999/xlink" width="41px" height="39px" xmlns="http://www.w3.org/2000/svg">
  <g transform="matrix(1 0 0 1 -66 -292 )">
    <path d="M 28.6450892857143 34.3099888392857  C 31.1618303571429 33.0404575892857  33.2286086309524 31.3175223214286  34.8454241071429 29.1411830357143  C 34.5098586309524 26.8922991071429  33.8425409226191 25.0242745535714  32.8434709821429 23.537109375  C 31.8444010416667 22.0499441964286  30.4373139880952 21.1902901785714  28.6222098214286 20.9581473214286  C 27.6002604166667 22.0318080357143  26.3838355654762 22.8696986607143  24.9729352678571 23.4718191964286  C 23.5620349702381 24.0739397321429  22.0710565476191 24.375  20.5 24.375  C 18.928943452381 24.375  17.4379650297619 24.0739397321429  16.0270647321429 23.4718191964286  C 14.6161644345238 22.8696986607143  13.3997395833333 22.0318080357143  12.3777901785714 20.9581473214286  C 10.5626860119048 21.1902901785714  9.15559895833333 22.0499441964286  8.15652901785714 23.537109375  C 7.15745907738095 25.0242745535714  6.49014136904762 26.8922991071429  6.15457589285714 29.1411830357143  C 7.77139136904762 31.3175223214286  9.83816964285714 33.0404575892857  12.3549107142857 34.3099888392857  C 14.8716517857143 35.5795200892857  17.5866815476191 36.2142857142857  20.5 36.2142857142857  C 23.413318452381 36.2142857142857  26.1283482142857 35.5795200892857  28.6450892857143 34.3099888392857  Z M 26.7117745535714 19.8373325892857  C 28.427734375 18.205078125  29.2857142857143 16.2354910714286  29.2857142857143 13.9285714285714  C 29.2857142857143 11.6216517857143  28.427734375 9.65206473214286  26.7117745535714 8.01981026785714  C 24.9958147321429 6.38755580357143  22.9252232142857 5.57142857142857  20.5 5.57142857142857  C 18.0747767857143 5.57142857142857  16.0041852678571 6.38755580357143  14.2882254464286 8.01981026785714  C 12.572265625 9.65206473214286  11.7142857142857 11.6216517857143  11.7142857142857 13.9285714285714  C 11.7142857142857 16.2354910714286  12.572265625 18.205078125  14.2882254464286 19.8373325892857  C 16.0041852678571 21.4695870535714  18.0747767857143 22.2857142857143  20.5 22.2857142857143  C 22.9252232142857 22.2857142857143  24.9958147321429 21.4695870535714  26.7117745535714 19.8373325892857  Z M 39.3755580357143 11.9263392857143  C 40.4585193452381 14.3348214285714  41 16.859375  41 19.5  C 41 22.140625  40.4585193452381 24.6615513392857  39.3755580357143 27.0627790178571  C 38.2925967261905 29.4640066964286  36.8397507440476 31.5387834821429  35.0170200892857 33.287109375  C 33.1942894345238 35.0354352678571  31.0169270833333 36.4246651785714  28.4849330357143 37.4547991071429  C 25.9529389880952 38.4849330357143  23.2912946428571 39  20.5 39  C 17.7239583333333 39  15.0699404761905 38.4849330357143  12.5379464285714 37.4547991071429  C 10.0059523809524 36.4246651785714  7.82477678571429 35.0390625  5.99441964285714 33.2979910714286  C 4.1640625 31.5569196428571  2.70740327380952 29.4821428571429  1.62444196428571 27.0736607142857  C 0.541480654761905 24.6651785714286  0 22.140625  0 19.5  C 0 16.859375  0.541480654761905 14.3348214285714  1.62444196428571 11.9263392857143  C 2.70740327380952 9.51785714285714  4.1640625 7.44308035714286  5.99441964285714 5.70200892857143  C 7.82477678571429 3.9609375  10.0059523809524 2.57533482142857  12.5379464285714 1.54520089285714  C 15.0699404761905 0.515066964285714  17.7239583333333 0  20.5 0  C 23.2760416666667 0  25.9300595238095 0.515066964285714  28.4620535714286 1.54520089285714  C 30.9940476190476 2.57533482142857  33.1752232142857 3.9609375  35.0055803571429 5.70200892857143  C 36.8359375 7.44308035714286  38.2925967261905 9.51785714285714  39.3755580357143 11.9263392857143  Z " fill-rule="nonzero" fill="#000000" stroke="none" transform="matrix(1 0 0 1 66 292 )" />
  </g>
</svg>