<?xml version="1.0" encoding="utf-8"?>
<svg version="1.1" xmlns:xlink="http://www.w3.org/1999/xlink" width="39px" height="41px" xmlns="http://www.w3.org/2000/svg">
  <g transform="matrix(1 0 0 1 -68 -218 )">
    <path d="M 38.741015625 29.6422526041667  C 38.913671875 30.9857855902778  39 32.4138454861111  39 33.9264322916667  C 39 35.8661024305556  38.365234375 37.5299479166667  37.095703125 38.91796875  C 35.826171875 40.3059895833333  34.29765625 41  32.51015625 41  L 6.48984375 41  C 4.70234375 41  3.173828125 40.3059895833333  1.904296875 38.91796875  C 0.634765625 37.5299479166667  0 35.8661024305556  0 33.9264322916667  C 0 32.4138454861111  0.0863281250000002 30.9857855902778  0.258984375 29.6422526041667  C 0.431640625 28.2987196180556  0.7515625 26.9462890625  1.21875 25.5849609375  C 1.6859375 24.2236328125  2.280078125 23.0580512152778  3.001171875 22.0882161458333  C 3.722265625 21.1183810763889  4.676953125 20.3264973958333  5.865234375 19.7125651041667  C 7.053515625 19.0986328125  8.41953125 18.7916666666667  9.96328125 18.7916666666667  C 12.62421875 21.0694444444444  15.803125 22.2083333333333  19.5 22.2083333333333  C 23.196875 22.2083333333333  26.37578125 21.0694444444444  29.03671875 18.7916666666667  C 30.58046875 18.7916666666667  31.946484375 19.0986328125  33.134765625 19.7125651041667  C 34.323046875 20.3264973958333  35.277734375 21.1183810763889  35.998828125 22.0882161458333  C 36.719921875 23.0580512152778  37.3140625 24.2236328125  37.78125 25.5849609375  C 38.2484375 26.9462890625  38.568359375 28.2987196180556  38.741015625 29.6422526041667  Z M 27.772265625 3.0029296875  C 30.057421875 5.0048828125  31.2 7.42057291666667  31.2 10.25  C 31.2 13.0794270833333  30.057421875 15.4951171875  27.772265625 17.4970703125  C 25.487109375 19.4990234375  22.7296875 20.5  19.5 20.5  C 16.2703125 20.5  13.512890625 19.4990234375  11.227734375 17.4970703125  C 8.942578125 15.4951171875  7.8 13.0794270833333  7.8 10.25  C 7.8 7.42057291666667  8.942578125 5.0048828125  11.227734375 3.0029296875  C 13.512890625 1.0009765625  16.2703125 0  19.5 0  C 22.7296875 0  25.487109375 1.0009765625  27.772265625 3.0029296875  Z " fill-rule="nonzero" fill="#000000" stroke="none" transform="matrix(1 0 0 1 68 218 )" />
  </g>
</svg>